<mxfile modified="2022-05-02T20:19:01.091Z" host="app.diagrams.net" agent="5.0 (Windows NT 10.0; Win64; x64) AppleWebKit/537.36 (KHTML, like Gecko) Chrome/100.0.4896.127 Safari/537.36 Edg/100.0.1185.50" etag="M9VQh-iVX8I6p0tCIi16" compressed="false" version="17.5.0" type="google">
  <diagram name="Qualities/Addressed/Usability (Cont)" id="86TdMpMtbtLkX8nIjh4F">
    <mxGraphModel grid="1" page="1" gridSize="10" guides="1" tooltips="1" connect="1" arrows="1" fold="1" pageScale="1" pageWidth="827" pageHeight="1169" math="0" shadow="0">
      <root>
        <mxCell id="NPU6HyYq4xDSOvdiUXyA-0" />
        <mxCell id="NPU6HyYq4xDSOvdiUXyA-1" value="Diagrams" parent="NPU6HyYq4xDSOvdiUXyA-0" />
        <UserObject label="Quality" id="NPU6HyYq4xDSOvdiUXyA-2">
          <mxCell style="strokeColor=#bac8d3;html=1;fontColor=#2f5b7c;fontSize=12;align=left;horizontal=0;fillColor=#E6E6E6;" vertex="1" parent="NPU6HyYq4xDSOvdiUXyA-1">
            <mxGeometry x="140" y="180" width="20" height="100" as="geometry" />
          </mxCell>
        </UserObject>
        <UserObject label="Feature/Control" id="NPU6HyYq4xDSOvdiUXyA-3">
          <mxCell style="strokeColor=#bac8d3;html=1;fontColor=#2f5b7c;fontSize=12;align=left;horizontal=0;fontStyle=2" vertex="1" parent="NPU6HyYq4xDSOvdiUXyA-1">
            <mxGeometry x="160" y="180" width="20" height="100" as="geometry" />
          </mxCell>
        </UserObject>
        <UserObject label="Group" id="NPU6HyYq4xDSOvdiUXyA-4">
          <mxCell style="strokeColor=#666666;html=1;fontColor=#333333;fontSize=12;align=left;horizontal=0;fillColor=#f5f5f5;" vertex="1" parent="NPU6HyYq4xDSOvdiUXyA-1">
            <mxGeometry x="120" y="180" width="20" height="100" as="geometry" />
          </mxCell>
        </UserObject>
        <UserObject label="Issue/Risk" id="NPU6HyYq4xDSOvdiUXyA-5">
          <mxCell style="strokeColor=#bac8d3;html=1;fontColor=#2f5b7c;fontSize=12;align=left;horizontal=0;fontStyle=2" vertex="1" parent="NPU6HyYq4xDSOvdiUXyA-1">
            <mxGeometry x="180" y="180" width="20" height="100" as="geometry" />
          </mxCell>
        </UserObject>
        <UserObject label="Reportability" id="NPU6HyYq4xDSOvdiUXyA-12">
          <mxCell style="strokeColor=#bac8d3;html=1;fontColor=#2f5b7c;fontSize=12;align=left;fillColor=#E6E6E6;" vertex="1" parent="NPU6HyYq4xDSOvdiUXyA-1">
            <mxGeometry x="140" y="360" width="540" height="20" as="geometry" />
          </mxCell>
        </UserObject>
        <UserObject label="Err Protection" id="NPU6HyYq4xDSOvdiUXyA-13">
          <mxCell style="strokeColor=#bac8d3;html=1;fontColor=#2f5b7c;fontSize=12;align=left;fillColor=#E6E6E6;" vertex="1" parent="NPU6HyYq4xDSOvdiUXyA-1">
            <mxGeometry x="140" y="540" width="540" height="20" as="geometry" />
          </mxCell>
        </UserObject>
        <UserObject label="Accessibility" id="NPU6HyYq4xDSOvdiUXyA-14">
          <mxCell style="strokeColor=#bac8d3;html=1;fontColor=#2f5b7c;fontSize=12;align=left;fillColor=#E6E6E6;" vertex="1" parent="NPU6HyYq4xDSOvdiUXyA-1">
            <mxGeometry x="140" y="640" width="540" height="20" as="geometry" />
          </mxCell>
        </UserObject>
        <UserObject label="Documentation" id="NPU6HyYq4xDSOvdiUXyA-15">
          <mxCell style="strokeColor=#bac8d3;html=1;fontColor=#2f5b7c;fontSize=12;align=left;fillColor=#E6E6E6;" vertex="1" parent="NPU6HyYq4xDSOvdiUXyA-1">
            <mxGeometry x="140" y="700" width="540" height="20" as="geometry" />
          </mxCell>
        </UserObject>
        <UserObject label="UI Esthetics" id="NPU6HyYq4xDSOvdiUXyA-16">
          <mxCell style="strokeColor=#bac8d3;html=1;fontColor=#2f5b7c;fontSize=12;align=left;fillColor=#E6E6E6;" vertex="1" parent="NPU6HyYq4xDSOvdiUXyA-1">
            <mxGeometry x="140" y="760" width="540" height="20" as="geometry" />
          </mxCell>
        </UserObject>
        <UserObject label="Meets mandated National standards." id="NPU6HyYq4xDSOvdiUXyA-23">
          <mxCell style="strokeColor=#bac8d3;html=1;fontColor=#2f5b7c;fontSize=12;align=left;fontStyle=2" vertex="1" parent="NPU6HyYq4xDSOvdiUXyA-1">
            <mxGeometry x="160" y="660" width="520" height="20" as="geometry" />
          </mxCell>
        </UserObject>
        <UserObject label="ISO-25010/Usability (cont.)" id="NPU6HyYq4xDSOvdiUXyA-27">
          <mxCell style="strokeColor=#666666;html=1;fontColor=#333333;fontSize=12;align=left;fontStyle=1;fillColor=#CCCCCC;" vertex="1" parent="NPU6HyYq4xDSOvdiUXyA-1">
            <mxGeometry x="120" y="280" width="560" height="20" as="geometry" />
          </mxCell>
        </UserObject>
        <UserObject label="Reports are designed as paper-based Views." id="NPU6HyYq4xDSOvdiUXyA-30">
          <mxCell style="strokeColor=#bac8d3;html=1;fontColor=#2f5b7c;fontSize=12;align=left;fontStyle=2" vertex="1" parent="NPU6HyYq4xDSOvdiUXyA-1">
            <mxGeometry x="160" y="380" width="520" height="20" as="geometry" />
          </mxCell>
        </UserObject>
        <UserObject label="Org CSS Framework is Industry based" id="NPU6HyYq4xDSOvdiUXyA-31">
          <mxCell style="strokeColor=#bac8d3;html=1;fontColor=#2f5b7c;fontSize=12;align=left;fontStyle=2" vertex="1" parent="NPU6HyYq4xDSOvdiUXyA-1">
            <mxGeometry x="160" y="780" width="520" height="20" as="geometry" />
          </mxCell>
        </UserObject>
        <UserObject label="Baseline Error trapping is implemented." id="NPU6HyYq4xDSOvdiUXyA-32">
          <mxCell style="strokeColor=#bac8d3;html=1;fontColor=#2f5b7c;fontSize=12;align=left;fontStyle=2" vertex="1" parent="NPU6HyYq4xDSOvdiUXyA-1">
            <mxGeometry x="160" y="560" width="520" height="20" as="geometry" />
          </mxCell>
        </UserObject>
        <UserObject label="DB changes are transactional (all or nothing)." id="NPU6HyYq4xDSOvdiUXyA-34">
          <mxCell style="strokeColor=#bac8d3;html=1;fontColor=#2f5b7c;fontSize=12;align=left;fontStyle=2" vertex="1" parent="NPU6HyYq4xDSOvdiUXyA-1">
            <mxGeometry x="160" y="600" width="520" height="20" as="geometry" />
          </mxCell>
        </UserObject>
        <UserObject label="Users are directed to an external doc site." id="NPU6HyYq4xDSOvdiUXyA-35">
          <mxCell style="strokeColor=#bac8d3;html=1;fontColor=#2f5b7c;fontSize=12;align=left;fontStyle=2" vertex="1" parent="NPU6HyYq4xDSOvdiUXyA-1">
            <mxGeometry x="160" y="720" width="520" height="20" as="geometry" />
          </mxCell>
        </UserObject>
        <UserObject label="Reports are left to the end. And suffer from it." id="NPU6HyYq4xDSOvdiUXyA-46">
          <mxCell style="strokeColor=#bac8d3;html=1;fontColor=#2f5b7c;fontSize=12;align=left;fontStyle=2" vertex="1" parent="NPU6HyYq4xDSOvdiUXyA-1">
            <mxGeometry x="180" y="400" width="500" height="20" as="geometry" />
          </mxCell>
        </UserObject>
        <UserObject label="&lt;font style=&quot;font-size: 12px;&quot;&gt;Without, insecure, underlying web svr errs are shown.&lt;/font&gt;" id="NPU6HyYq4xDSOvdiUXyA-47">
          <mxCell style="strokeColor=#bac8d3;html=1;fontColor=#2f5b7c;fontSize=12;align=left;fontStyle=2" vertex="1" parent="NPU6HyYq4xDSOvdiUXyA-1">
            <mxGeometry x="180" y="580" width="500" height="20" as="geometry" />
          </mxCell>
        </UserObject>
        <UserObject label="&quot;Half transactions&quot; are &lt;u style=&quot;font-size: 12px&quot;&gt;very&lt;/u&gt; hard to find, or complete without manual &amp;amp; expensive intervention." id="NPU6HyYq4xDSOvdiUXyA-48">
          <mxCell style="strokeColor=#bac8d3;html=1;fontColor=#2f5b7c;fontSize=12;align=left;fontStyle=2" vertex="1" parent="NPU6HyYq4xDSOvdiUXyA-1">
            <mxGeometry x="180" y="620" width="500" height="20" as="geometry" />
          </mxCell>
        </UserObject>
        <UserObject label="The organisation risks being sued by both internal and external users." id="NPU6HyYq4xDSOvdiUXyA-49">
          <mxCell style="strokeColor=#bac8d3;html=1;fontColor=#2f5b7c;fontSize=12;align=left;fontStyle=2" vertex="1" parent="NPU6HyYq4xDSOvdiUXyA-1">
            <mxGeometry x="180" y="680" width="500" height="20" as="geometry" />
          </mxCell>
        </UserObject>
        <UserObject label="Without, Customer Support costs increase." id="NPU6HyYq4xDSOvdiUXyA-50">
          <mxCell style="strokeColor=#bac8d3;html=1;fontColor=#2f5b7c;fontSize=12;align=left;fontStyle=2" vertex="1" parent="NPU6HyYq4xDSOvdiUXyA-1">
            <mxGeometry x="180" y="740" width="500" height="20" as="geometry" />
          </mxCell>
        </UserObject>
        <UserObject label="Errors occur on dif browsers. Hard to track down." id="NPU6HyYq4xDSOvdiUXyA-51">
          <mxCell style="strokeColor=#bac8d3;html=1;fontColor=#2f5b7c;fontSize=12;align=left;fontStyle=2" vertex="1" parent="NPU6HyYq4xDSOvdiUXyA-1">
            <mxGeometry x="180" y="800" width="500" height="20" as="geometry" />
          </mxCell>
        </UserObject>
        <UserObject label="Single/List Views are designed to be Printed." id="NPU6HyYq4xDSOvdiUXyA-52">
          <mxCell style="strokeColor=#bac8d3;html=1;fontColor=#2f5b7c;fontSize=12;align=left;fontStyle=2" vertex="1" parent="NPU6HyYq4xDSOvdiUXyA-1">
            <mxGeometry x="160" y="420" width="520" height="20" as="geometry" />
          </mxCell>
        </UserObject>
        <UserObject label="Info cannot easily be shared with Decision makers." id="NPU6HyYq4xDSOvdiUXyA-53">
          <mxCell style="strokeColor=#bac8d3;html=1;fontColor=#2f5b7c;fontSize=12;align=left;fontStyle=2" vertex="1" parent="NPU6HyYq4xDSOvdiUXyA-1">
            <mxGeometry x="180" y="440" width="500" height="20" as="geometry" />
          </mxCell>
        </UserObject>
        <UserObject label="Main content of each page is Printable." id="NPU6HyYq4xDSOvdiUXyA-54">
          <mxCell style="strokeColor=#bac8d3;html=1;fontColor=#2f5b7c;fontSize=12;align=left;fontStyle=2" vertex="1" parent="NPU6HyYq4xDSOvdiUXyA-1">
            <mxGeometry x="160" y="460" width="520" height="20" as="geometry" />
          </mxCell>
        </UserObject>
        <UserObject label="If not, would not be compliant with NZWUS (#3.2)" id="NPU6HyYq4xDSOvdiUXyA-55">
          <mxCell style="strokeColor=#bac8d3;html=1;fontColor=#2f5b7c;fontSize=12;align=left;fontStyle=2" vertex="1" parent="NPU6HyYq4xDSOvdiUXyA-1">
            <mxGeometry x="180" y="480" width="500" height="20" as="geometry" />
          </mxCell>
        </UserObject>
        <UserObject label="Print without Nav,Banner,B.crumbs,Search" id="NPU6HyYq4xDSOvdiUXyA-56">
          <mxCell style="strokeColor=#bac8d3;html=1;fontColor=#2f5b7c;fontSize=12;align=left;fontStyle=2" vertex="1" parent="NPU6HyYq4xDSOvdiUXyA-1">
            <mxGeometry x="160" y="500" width="520" height="20" as="geometry" />
          </mxCell>
        </UserObject>
        <UserObject label="If not, would not be compliant with NZWUS (#3.2)" id="NPU6HyYq4xDSOvdiUXyA-57">
          <mxCell style="strokeColor=#bac8d3;html=1;fontColor=#2f5b7c;fontSize=12;align=left;fontStyle=2" vertex="1" parent="NPU6HyYq4xDSOvdiUXyA-1">
            <mxGeometry x="180" y="520" width="500" height="20" as="geometry" />
          </mxCell>
        </UserObject>
        <UserObject label="Localizability" id="Or17TVGlf3JwyH6q8U-N-0">
          <mxCell style="strokeColor=#bac8d3;html=1;fontColor=#2f5b7c;fontSize=12;align=left;fillColor=#E6E6E6;" vertex="1" parent="NPU6HyYq4xDSOvdiUXyA-1">
            <mxGeometry x="140" y="300" width="540" height="20" as="geometry" />
          </mxCell>
        </UserObject>
        <UserObject label="UI localisable as per Member Profile setting." id="Or17TVGlf3JwyH6q8U-N-1">
          <mxCell style="strokeColor=#bac8d3;html=1;fontColor=#2f5b7c;fontSize=12;align=left;fontStyle=2" vertex="1" parent="NPU6HyYq4xDSOvdiUXyA-1">
            <mxGeometry x="160" y="320" width="520" height="20" as="geometry" />
          </mxCell>
        </UserObject>
        <UserObject label="Users take longer to learn, make more errors." id="Or17TVGlf3JwyH6q8U-N-2">
          <mxCell style="strokeColor=#bac8d3;html=1;fontColor=#2f5b7c;fontSize=12;align=left;fontStyle=2" vertex="1" parent="NPU6HyYq4xDSOvdiUXyA-1">
            <mxGeometry x="180" y="340" width="500" height="20" as="geometry" />
          </mxCell>
        </UserObject>
        <UserObject label="Note" id="YQ3f_yUsl9AiqAGr3P1W-0">
          <mxCell style="strokeColor=#bac8d3;html=1;fontColor=#2f5b7c;fontSize=12;align=left;horizontal=0;fontStyle=2" vertex="1" parent="NPU6HyYq4xDSOvdiUXyA-1">
            <mxGeometry x="200" y="180" width="20" height="100" as="geometry" />
          </mxCell>
        </UserObject>
        <UserObject label="Infrastructure" id="hBwP9MY-Jj1w0hIBQBUA-1">
          <mxCell style="strokeColor=#bac8d3;html=1;fontColor=#2f5b7c;fontSize=12;align=left;horizontal=0;fontStyle=2" vertex="1" parent="NPU6HyYq4xDSOvdiUXyA-1">
            <mxGeometry x="600" y="180" width="20" height="100" as="geometry" />
          </mxCell>
        </UserObject>
        <UserObject label="Info Svc" id="hBwP9MY-Jj1w0hIBQBUA-2">
          <mxCell style="strokeColor=#bac8d3;html=1;fontColor=#2f5b7c;fontSize=12;align=left;horizontal=0;fontStyle=2" vertex="1" parent="NPU6HyYq4xDSOvdiUXyA-1">
            <mxGeometry x="640" y="180" width="20" height="100" as="geometry" />
          </mxCell>
        </UserObject>
        <UserObject label="Info Svc Client" id="hBwP9MY-Jj1w0hIBQBUA-3">
          <mxCell style="strokeColor=#bac8d3;html=1;fontColor=#2f5b7c;fontSize=12;align=left;horizontal=0;fontStyle=2" vertex="1" parent="NPU6HyYq4xDSOvdiUXyA-1">
            <mxGeometry x="660" y="180" width="20" height="100" as="geometry" />
          </mxCell>
        </UserObject>
        <UserObject label="Delivery Service" id="hBwP9MY-Jj1w0hIBQBUA-4">
          <mxCell style="strokeColor=#bac8d3;html=1;fontColor=#2f5b7c;fontSize=12;align=left;horizontal=0;fontStyle=2" vertex="1" parent="NPU6HyYq4xDSOvdiUXyA-1">
            <mxGeometry x="620" y="180" width="20" height="100" as="geometry" />
          </mxCell>
        </UserObject>
        <UserObject label="Processes" id="hBwP9MY-Jj1w0hIBQBUA-5">
          <mxCell style="strokeColor=#bac8d3;html=1;fontColor=#2f5b7c;fontSize=12;align=left;horizontal=0;fontStyle=2" vertex="1" parent="NPU6HyYq4xDSOvdiUXyA-1">
            <mxGeometry x="580" y="180" width="20" height="100" as="geometry" />
          </mxCell>
        </UserObject>
        <mxCell id="hBwP9MY-Jj1w0hIBQBUA-6" value="&lt;b&gt;X&lt;/b&gt;" style="text;html=1;strokeColor=#666666;fillColor=#f5f5f5;align=center;verticalAlign=middle;whiteSpace=wrap;rounded=0;fontSize=12;fontColor=#333333;" vertex="1" parent="NPU6HyYq4xDSOvdiUXyA-1">
          <mxGeometry x="660" y="320" width="20" height="20" as="geometry" />
        </mxCell>
        <mxCell id="hBwP9MY-Jj1w0hIBQBUA-7" value="&lt;b&gt;X&lt;/b&gt;" style="text;html=1;strokeColor=#666666;fillColor=#f5f5f5;align=center;verticalAlign=middle;whiteSpace=wrap;rounded=0;fontSize=12;fontColor=#333333;" vertex="1" parent="NPU6HyYq4xDSOvdiUXyA-1">
          <mxGeometry x="640" y="320" width="20" height="20" as="geometry" />
        </mxCell>
        <mxCell id="hBwP9MY-Jj1w0hIBQBUA-8" value="&lt;b&gt;X&lt;/b&gt;" style="text;html=1;strokeColor=#666666;fillColor=#f5f5f5;align=center;verticalAlign=middle;whiteSpace=wrap;rounded=0;fontSize=12;fontColor=#333333;" vertex="1" parent="NPU6HyYq4xDSOvdiUXyA-1">
          <mxGeometry x="640" y="380" width="20" height="20" as="geometry" />
        </mxCell>
        <mxCell id="hBwP9MY-Jj1w0hIBQBUA-9" value="&lt;b&gt;X&lt;/b&gt;" style="text;html=1;strokeColor=#666666;fillColor=#f5f5f5;align=center;verticalAlign=middle;whiteSpace=wrap;rounded=0;fontSize=12;fontColor=#333333;" vertex="1" parent="NPU6HyYq4xDSOvdiUXyA-1">
          <mxGeometry x="660" y="420" width="20" height="20" as="geometry" />
        </mxCell>
        <mxCell id="hBwP9MY-Jj1w0hIBQBUA-10" value="&lt;b&gt;X&lt;/b&gt;" style="text;html=1;strokeColor=#666666;fillColor=#f5f5f5;align=center;verticalAlign=middle;whiteSpace=wrap;rounded=0;fontSize=12;fontColor=#333333;" vertex="1" parent="NPU6HyYq4xDSOvdiUXyA-1">
          <mxGeometry x="640" y="420" width="20" height="20" as="geometry" />
        </mxCell>
        <mxCell id="hBwP9MY-Jj1w0hIBQBUA-11" value="&lt;b&gt;X&lt;/b&gt;" style="text;html=1;strokeColor=#666666;fillColor=#f5f5f5;align=center;verticalAlign=middle;whiteSpace=wrap;rounded=0;fontSize=12;fontColor=#333333;" vertex="1" parent="NPU6HyYq4xDSOvdiUXyA-1">
          <mxGeometry x="660" y="460" width="20" height="20" as="geometry" />
        </mxCell>
        <mxCell id="hBwP9MY-Jj1w0hIBQBUA-12" value="&lt;b&gt;X&lt;/b&gt;" style="text;html=1;strokeColor=#666666;fillColor=#f5f5f5;align=center;verticalAlign=middle;whiteSpace=wrap;rounded=0;fontSize=12;fontColor=#333333;" vertex="1" parent="NPU6HyYq4xDSOvdiUXyA-1">
          <mxGeometry x="660" y="500" width="20" height="20" as="geometry" />
        </mxCell>
        <mxCell id="hBwP9MY-Jj1w0hIBQBUA-13" value="&lt;b&gt;X&lt;/b&gt;" style="text;html=1;strokeColor=#666666;fillColor=#f5f5f5;align=center;verticalAlign=middle;whiteSpace=wrap;rounded=0;fontSize=12;fontColor=#333333;" vertex="1" parent="NPU6HyYq4xDSOvdiUXyA-1">
          <mxGeometry x="640" y="560" width="20" height="20" as="geometry" />
        </mxCell>
        <mxCell id="hBwP9MY-Jj1w0hIBQBUA-14" value="&lt;b&gt;X&lt;/b&gt;" style="text;html=1;strokeColor=#666666;fillColor=#f5f5f5;align=center;verticalAlign=middle;whiteSpace=wrap;rounded=0;fontSize=12;fontColor=#333333;" vertex="1" parent="NPU6HyYq4xDSOvdiUXyA-1">
          <mxGeometry x="660" y="560" width="20" height="20" as="geometry" />
        </mxCell>
        <mxCell id="hBwP9MY-Jj1w0hIBQBUA-15" value="&lt;b&gt;X&lt;/b&gt;" style="text;html=1;strokeColor=#666666;fillColor=#f5f5f5;align=center;verticalAlign=middle;whiteSpace=wrap;rounded=0;fontSize=12;fontColor=#333333;" vertex="1" parent="NPU6HyYq4xDSOvdiUXyA-1">
          <mxGeometry x="640" y="600" width="20" height="20" as="geometry" />
        </mxCell>
        <mxCell id="hBwP9MY-Jj1w0hIBQBUA-16" value="&lt;b&gt;X&lt;/b&gt;" style="text;html=1;strokeColor=#666666;fillColor=#f5f5f5;align=center;verticalAlign=middle;whiteSpace=wrap;rounded=0;fontSize=12;fontColor=#333333;" vertex="1" parent="NPU6HyYq4xDSOvdiUXyA-1">
          <mxGeometry x="640" y="660" width="20" height="20" as="geometry" />
        </mxCell>
        <mxCell id="hBwP9MY-Jj1w0hIBQBUA-17" value="&lt;b&gt;X&lt;/b&gt;" style="text;html=1;strokeColor=#666666;fillColor=#f5f5f5;align=center;verticalAlign=middle;whiteSpace=wrap;rounded=0;fontSize=12;fontColor=#333333;" vertex="1" parent="NPU6HyYq4xDSOvdiUXyA-1">
          <mxGeometry x="660" y="660" width="20" height="20" as="geometry" />
        </mxCell>
        <mxCell id="hBwP9MY-Jj1w0hIBQBUA-18" value="&lt;b&gt;X&lt;/b&gt;" style="text;html=1;strokeColor=#666666;fillColor=#f5f5f5;align=center;verticalAlign=middle;whiteSpace=wrap;rounded=0;fontSize=12;fontColor=#333333;" vertex="1" parent="NPU6HyYq4xDSOvdiUXyA-1">
          <mxGeometry x="660" y="720" width="20" height="20" as="geometry" />
        </mxCell>
        <mxCell id="hBwP9MY-Jj1w0hIBQBUA-19" value="&lt;b&gt;X&lt;/b&gt;" style="text;html=1;strokeColor=#666666;fillColor=#f5f5f5;align=center;verticalAlign=middle;whiteSpace=wrap;rounded=0;fontSize=12;fontColor=#333333;" vertex="1" parent="NPU6HyYq4xDSOvdiUXyA-1">
          <mxGeometry x="640" y="720" width="20" height="20" as="geometry" />
        </mxCell>
        <mxCell id="hBwP9MY-Jj1w0hIBQBUA-20" value="&lt;b&gt;X&lt;/b&gt;" style="text;html=1;strokeColor=#666666;fillColor=#f5f5f5;align=center;verticalAlign=middle;whiteSpace=wrap;rounded=0;fontSize=12;fontColor=#333333;" vertex="1" parent="NPU6HyYq4xDSOvdiUXyA-1">
          <mxGeometry x="660" y="780" width="20" height="20" as="geometry" />
        </mxCell>
        <mxCell id="NPU6HyYq4xDSOvdiUXyA-58" value="Title/Diagram" style="" parent="NPU6HyYq4xDSOvdiUXyA-0" />
        <mxCell id="NPU6HyYq4xDSOvdiUXyA-59" value="&lt;font style=&quot;font-size: 12px&quot;&gt;Diagram: Base System Logical Module - Qualities -&amp;nbsp;ISO-25010 Qualities Addressed - Usability (Cont)&lt;/font&gt;" style="text;strokeColor=none;fillColor=none;html=1;fontSize=12;fontStyle=2;verticalAlign=middle;align=left;shadow=0;glass=0;comic=0;opacity=30;fontColor=#808080;" vertex="1" parent="NPU6HyYq4xDSOvdiUXyA-58">
          <mxGeometry x="120" y="840" width="520" height="20" as="geometry" />
        </mxCell>
        <mxCell id="NPU6HyYq4xDSOvdiUXyA-60" value="Title/Page" visible="0" parent="NPU6HyYq4xDSOvdiUXyA-0" />
        <mxCell id="NPU6HyYq4xDSOvdiUXyA-61" value="" style="group;fontSize=10;" vertex="1" connectable="0" parent="NPU6HyYq4xDSOvdiUXyA-60">
          <mxGeometry x="120" y="120" width="560" height="45" as="geometry" />
        </mxCell>
        <mxCell id="NPU6HyYq4xDSOvdiUXyA-62" value="&lt;font style=&quot;font-size: 12px&quot;&gt;Base Logical Module - Qualities -&amp;nbsp;ISO-25010 Qualities Addressed - Usability (Cont)&lt;/font&gt;" style="text;strokeColor=none;fillColor=none;html=1;fontSize=24;fontStyle=1;verticalAlign=middle;align=left;shadow=0;glass=0;comic=0;opacity=30;fontColor=#808080;" vertex="1" parent="NPU6HyYq4xDSOvdiUXyA-61">
          <mxGeometry width="560" height="40" as="geometry" />
        </mxCell>
        <mxCell id="NPU6HyYq4xDSOvdiUXyA-63" value="" style="line;strokeWidth=2;html=1;shadow=0;glass=0;comic=0;fillColor=none;fontSize=10;fontColor=#CCCCCC;labelBackgroundColor=none;strokeColor=#CCCCCC;" vertex="1" parent="NPU6HyYq4xDSOvdiUXyA-61">
          <mxGeometry y="35" width="560" height="10" as="geometry" />
        </mxCell>
        <mxCell id="NPU6HyYq4xDSOvdiUXyA-64" value="About" parent="NPU6HyYq4xDSOvdiUXyA-0" />
      </root>
    </mxGraphModel>
  </diagram>
</mxfile>
